HIERARCHY
ROOT Hips
{
	OFFSET 0.00000 0.00000 0.00000
	CHANNELS 6 Xposition Yposition Zposition Zrotation Yrotation Xrotation 
	JOINT LHipJoint
	{
		OFFSET 0 0 0
		CHANNELS 3 Zrotation Yrotation Xrotation
		JOINT LeftHip
		{
			OFFSET 1.29432 -1.88279 0.59910
			CHANNELS 3 Zrotation Yrotation Xrotation
			JOINT LeftKnee
			{
				OFFSET 2.63039 -7.22694 0.00000
				CHANNELS 3 Zrotation Yrotation Xrotation
				JOINT LeftAnkle
				{
					OFFSET 2.70674 -7.43672 0.00000
					CHANNELS 3 Zrotation Yrotation Xrotation
					JOINT LeftToe
					{
						OFFSET 0.15066 -0.41394 2.09027
						CHANNELS 3 Zrotation Yrotation Xrotation
						End Site
						{
							OFFSET 0.00000 -0.00000 1.07518
						}
					}
				}
			}
		}
	}
	JOINT RHipJoint
	{
		OFFSET 0 0 0
		CHANNELS 3 Zrotation Yrotation Xrotation
		JOINT RightHip
		{
			OFFSET -1.37068 -1.88279 0.59910
			CHANNELS 3 Zrotation Yrotation Xrotation
			JOINT RightKnee
			{
				OFFSET -2.57023 -7.06166 0.00000
				CHANNELS 3 Zrotation Yrotation Xrotation
				JOINT RightAnkle
				{
					OFFSET -2.76461 -7.59570 0.00000
					CHANNELS 3 Zrotation Yrotation Xrotation
					JOINT RightToe
					{
						OFFSET -0.24175 -0.64785 2.19719
						CHANNELS 3 Zrotation Yrotation Xrotation
						End Site
						{
							OFFSET -0.00000 -0.00000 1.14803
						}
					}
				}
			}
		}
	}
	JOINT lowerback
	{
		OFFSET 0 0 0
		CHANNELS 3 Zrotation Yrotation Xrotation
		JOINT Chest
		{
			OFFSET -0.03138 2.03983 -0.23106
			CHANNELS 3 Zrotation Yrotation Xrotation
			JOINT Chest2
			{
				OFFSET -0.00325 2.06238 -0.06878
				CHANNELS 3 Zrotation Yrotation Xrotation
				JOINT lowerneck
				{
					OFFSET 0 0 0
					CHANNELS 3 Zrotation Yrotation Xrotation
					JOINT Neck
					{
						OFFSET -0.00002 1.75318 0.18090
						CHANNELS 3 Zrotation Yrotation Xrotation
						JOINT Head
						{
							OFFSET 0.08806 1.75856 -0.25387
							CHANNELS 3 Zrotation Yrotation Xrotation
							End Site
							{
								OFFSET 0.02554 1.78597 -0.10684
							}
						}
					}
				}
				JOINT LeftCollar
				{
					OFFSET 0 0 0
					CHANNELS 3 Zrotation Yrotation Xrotation
					JOINT LeftShoulder
					{
						OFFSET 3.09657 1.33597 -0.04414
CHANNELS 3 Zrotation Xrotation Yrotation
						JOINT LeftElbow
						{
OFFSET 0 -5.342980 -0.000000
CHANNELS 3 Zrotation Xrotation Yrotation
							JOINT LeftWrist
							{
OFFSET 0 -3.672620 -0.000000
CHANNELS 3 Zrotation Xrotation Yrotation
								JOINT lhand
								{
									OFFSET 0 0 0
CHANNELS 3 Zrotation Xrotation Yrotation
									JOINT LFingers
									{
OFFSET 0 -0.599300 -0.000000
CHANNELS 3 Zrotation Xrotation Yrotation
										End Site
										{
OFFSET 0 -0.483170 -0.000000
										}
									}
								}
								JOINT LThumb
								{
OFFSET 0 0.000000 0.000000
CHANNELS 3 Zrotation Xrotation Yrotation
									End Site
									{
OFFSET 0 -0.490550 0.490550
									}
								}
							}
						}
					}
				}
				JOINT RightCollar
				{
					OFFSET 0 0 0
					CHANNELS 3 Zrotation Yrotation Xrotation
					JOINT RightShoulder
					{
						OFFSET -3.16460 1.32273 -0.23382
CHANNELS 3 Zrotation Xrotation Yrotation
						JOINT RightElbow
						{
OFFSET 0 -5.549670 0.033480
CHANNELS 3 Zrotation Xrotation Yrotation
							JOINT RightWrist
							{
OFFSET 0 -3.694010 0.000000
CHANNELS 3 Zrotation Xrotation Yrotation
								JOINT rhand
								{
									OFFSET 0 0 0
CHANNELS 3 Zrotation Xrotation Yrotation
									JOINT RFingers
									{
OFFSET 0 -0.638110 0.000000
CHANNELS 3 Zrotation Xrotation Yrotation
										End Site
										{
OFFSET 0 -0.514460 0.000000
										}
									}
								}
								JOINT RThumb
								{
OFFSET 0 0.000000 0.000000
CHANNELS 3 Zrotation Xrotation Yrotation
									End Site
									{
OFFSET 0 -0.522320 0.522320
									}
								}
							}
						}
					}
				}
			}
		}
	}
}
MOTION
Frames: 5
Frame Time: 0.008333333333333333
9.012100 18.417700 -11.990200 3.858200 -9.550800 1.556600 0.000000 0.000000 0.000000 -22.061900 -2.790200 -13.922900 0.412800 4.124200 11.426200 -0.037700 3.442200 -1.376800 0.169600 2.652700 7.313400 0.000000 0.000000 0.000000 13.237400 7.856500 -1.855600 -5.949000 -14.378700 44.776500 0.066100 4.759700 3.206200 -1.326700 7.294300 -20.590100 -6.412900 0.757300 0.553200 -1.874000 1.039700 1.567600 1.667100 0.453500 1.227500 -0.558100 -0.917700 -11.454500 5.313700 -2.461500 22.585400 1.630500 -0.654600 9.038700 0.000000 -0.000000 0.000000 0.644400 3.440400 -1.616600 13.514300 -22.036200 2.643200 13.888300 32.187300 -28.805800 0.000000 0.000000 0.000000 -7.125000 0.000000 0.000000 -18.992800 58.486400 6.412300 0.000000 -0.000000 0.000000 -0.770800 4.339600 7.735200 -12.898300 -21.138100 -2.416500 -25.466400 15.866500 -23.434400 0.000000 0.000000 0.000000 7.125000 0.000000 -0.000000 2.279700 4.351600 2.101800
9.017848 18.421935 -11.948354 4.015301 -9.484552 1.575859 0.000000 0.000000 0.000000 -22.319180 -2.539727 -13.777648 0.395809 4.038490 11.185054 -0.031599 3.148216 -1.395102 0.189515 2.799566 7.721478 0.000000 0.000000 0.000000 12.951181 7.698492 -2.441500 -6.096925 -14.520121 45.366635 0.057025 4.326564 2.136848 -1.099267 6.624505 -18.621403 -6.621023 0.597174 0.575837 -1.810777 0.818267 1.452850 1.846737 0.346061 1.111036 -0.804843 -0.819134 -11.086100 5.328472 -2.273494 22.570829 1.698059 -0.592435 8.959343 0.000000 0.000000 0.000000 0.522491 3.647565 -1.597290 13.674728 -22.267414 2.703953 14.957400 32.554086 -28.447484 0.000000 0.000000 0.000000 -7.125000 0.000000 0.000000 -17.638136 58.380271 5.895976 0.000000 0.000000 0.000000 -1.011845 4.522313 8.150387 -12.901779 -21.143142 -2.417760 -25.460148 16.041347 -23.611365 0.000000 0.000000 0.000000 7.125000 0.000000 0.000000 2.305665 4.164199 2.133966
9.023614 18.426236 -11.906591 4.171570 -9.417261 1.595874 0.000000 0.000000 0.000000 -22.575650 -2.290494 -13.634975 0.379069 3.954039 10.947448 -0.025510 2.853722 -1.412472 0.208855 2.942220 8.117853 0.000000 0.000000 0.000000 12.665787 7.539288 -3.028043 -6.244227 -14.660884 45.954171 0.047855 3.891345 1.072459 -0.875280 5.964726 -16.682187 -6.825827 0.438012 0.599901 -1.749825 0.598011 1.338395 2.022197 0.239268 0.994048 -1.047792 -0.721225 -10.721006 5.344696 -2.087587 22.556689 1.765236 -0.530723 8.880823 0.000000 0.000000 0.000000 0.405461 3.852208 -1.580694 13.834910 -22.498247 2.764630 15.974772 32.904010 -28.117243 0.000000 0.000000 0.000000 -7.125000 0.000000 0.000000 -16.357409 58.289037 5.413355 0.000000 0.000000 0.000000 -1.247590 4.704200 8.560829 -12.905963 -21.149219 -2.419275 -25.457409 16.216115 -23.784094 0.000000 0.000000 0.000000 7.125000 0.000000 0.000000 2.328936 3.980617 2.163466
9.030522 18.434454 -11.869837 4.278506 -9.288092 1.660761 0.000000 0.000000 0.000000 -22.784025 -2.114991 -13.645563 0.377204 3.944308 10.920121 -0.020065 2.528883 -1.374558 0.194032 2.834731 7.819080 0.000000 0.000000 0.000000 12.429430 7.309032 -3.652765 -6.354591 -14.762575 46.387307 0.033083 3.332368 0.302888 -0.855970 5.899839 -16.494181 -6.833490 0.336068 0.708651 -1.823838 0.447666 1.241442 1.949546 0.170902 0.845973 -1.065438 -0.662338 -10.552259 5.447144 -2.026431 22.568083 1.809704 -0.495885 8.851984 0.000000 0.000000 0.000000 0.578292 3.907062 -1.725291 13.980465 -22.706420 2.820795 13.919509 32.252264 -29.454664 0.000000 0.000000 0.000000 -7.125000 0.000000 0.000000 -19.468564 59.082505 6.932733 0.000000 0.000000 0.000000 -1.168485 4.837101 8.689444 -12.952044 -21.216829 -2.435913 -25.663314 16.386122 -23.705242 0.000000 0.000000 0.000000 7.125000 0.000000 0.000000 2.192204 4.023926 2.034600
9.037350 18.442662 -11.832998 4.383309 -9.160686 1.724161 0.000000 0.000000 0.000000 -22.990159 -1.939123 -13.653239 0.375230 3.934020 10.891226 -0.014740 2.209423 -1.331529 0.178169 2.717152 7.492400 0.000000 0.000000 0.000000 12.196950 7.080670 -4.274306 -6.464579 -14.863835 46.818811 0.018301 2.766050 -0.466165 -0.839023 5.842774 -16.328869 -6.854474 0.234333 0.803848 -1.886647 0.299362 1.154655 1.895894 0.102573 0.715847 -1.086989 -0.603712 -10.391305 5.540809 -1.962621 22.575946 1.852086 -0.460935 8.823215 0.000000 0.000000 0.000000 0.734983 3.946754 -1.874087 14.120768 -22.907084 2.874931 11.968045 31.613768 -30.735429 0.000000 0.000000 0.000000 -7.125000 0.000000 0.000000 -22.429662 59.846503 8.381813 0.000000 0.000000 0.000000 -1.104299 4.956031 8.817979 -12.998178 -21.284509 -2.452576 -25.861417 16.554283 -23.621538 0.000000 0.000000 0.000000 7.125000 0.000000 0.000000 2.059663 4.073972 1.909376
